<svg xmlns="http://www.w3.org/2000/svg" width="31" height="31" viewBox="0 0 31 31">
  <path id="Icon_20_" d="M549.143,630.619l-2.228-5.03a1,1,0,0,0-1.792-.051l-.21.408a1.007,1.007,0,0,1-1.248.469,14.444,14.444,0,0,0-8.844-.341A14.715,14.715,0,0,0,524.074,638.7a14.453,14.453,0,0,0,1.059,7.1.984.984,0,0,0,1.347.471l1.781-.885a.969.969,0,0,0,.491-1.217,10.524,10.524,0,0,1-.726-5.071,10.775,10.775,0,0,1,7.939-9.24,10.541,10.541,0,0,1,5.866.1c.489.151.87.3.637.751-.127.249-.3.578-.475.925a1.027,1.027,0,0,0,1.045,1.508l5.406-1.158A.987.987,0,0,0,549.143,630.619ZM529.857,650.38l2.228,5.031a1,1,0,0,0,1.793.051l.209-.408a1.007,1.007,0,0,1,1.249-.469,14.441,14.441,0,0,0,8.843.341A14.715,14.715,0,0,0,554.926,642.3a14.45,14.45,0,0,0-1.059-7.1.985.985,0,0,0-1.347-.472l-1.781.886a.969.969,0,0,0-.491,1.217,10.524,10.524,0,0,1,.726,5.071,10.774,10.774,0,0,1-7.939,9.24,10.532,10.532,0,0,1-5.866-.1c-.489-.15-.87-.3-.637-.75l.475-.925a1.027,1.027,0,0,0-1.045-1.508l-5.406,1.158A.986.986,0,0,0,529.857,650.38Z" transform="translate(-524 -625)" fill="#fff"/>
</svg>
